<svg xmlns="http://www.w3.org/2000/svg" width="365.86" height="60.61" viewBox="0 0 365.86 60.61">
  <defs>
    <style>
      .cls-1 {
        fill: #fff;
      }
    </style>
  </defs>
  <g id="Layer_2" data-name="Layer 2">
    <g id="Layer_1-2" data-name="Layer 1">
      <g>
        <path class="cls-1" d="M22.18,25.89a7.8,7.8,0,0,1-3,6.14,10.82,10.82,0,0,1-7.26,2.57H9v24h2.13v1.54H0V58.65H2.13V2H0V.42H11.92A10.81,10.81,0,0,1,19.18,3a7.83,7.83,0,0,1,3,6.15ZM5.54,58.65V2H3.84V58.65Zm9.8-29V5.38a3.28,3.28,0,0,0-1-2.42,3.28,3.28,0,0,0-2.42-1H9v31.1h3a3.43,3.43,0,0,0,3.42-3.42Zm3.42-2.42V7.79a6,6,0,0,0-3-5.37,6.19,6.19,0,0,1,1.33,4.17V28.43a6.21,6.21,0,0,1-1.33,4.17A6,6,0,0,0,18.76,27.22Z"/>
        <path class="cls-1" d="M53.75,60.19h-3q-6,0-6-6.25V32.81a3.41,3.41,0,0,0-3.42-3.42h-3V58.65h2.12v1.54H29.45V58.65h2.12V2H29.45V.42H41.37A10.78,10.78,0,0,1,48.62,3a7.83,7.83,0,0,1,3,6.15V20.68q0,5.58-6,7.92,6,2.49,6,8v19.8c0,1.53.66,2.29,2,2.29h.17ZM35,58.65V2H33.28V58.65Zm9.8-34.22v-19a3.32,3.32,0,0,0-1-2.42,3.3,3.3,0,0,0-2.42-1h-3V27.84h3a3.41,3.41,0,0,0,3.42-3.41Zm3.41-2.38V7.79a6,6,0,0,0-3-5.37A6.14,6.14,0,0,1,46.5,6.59V23.22a6.33,6.33,0,0,1-1.34,4.21A6.09,6.09,0,0,0,48.2,22.05Zm1.71,37c-1.14-.64-1.71-1.86-1.71-3.67V35.18a6.09,6.09,0,0,0-3-5.38A6.27,6.27,0,0,1,46.5,34V54.65C46.5,57.21,47.63,58.68,49.91,59.07Z"/>
        <path class="cls-1" d="M81.53,60.19H60.18V58.65h2.13V2H60.18V.42H81.53V18.34H74.69V2H69.15V27.84h8.08v1.55H69.15V58.65h5.54V42.27h6.84Zm-15.8-1.54V2H64V58.65ZM78.11,16.84V2H76.4V16.84Zm0,41.81V43.81H76.4V58.65Z"/>
        <path class="cls-1" d="M118.31,60.19H107.22V58.65h2.13V17.92l-4.8,42.27H99.09L93.47,17.92V58.65h2.12v1.54H89.21V58.65h2.13V2H89.21V.42h9.05L104.14,47,109.26.42h9V2h-2.13V58.65h2.13Zm-15.55-1.54L94.92,2H93.05l7.84,56.69Zm10,0V2h-1.71V58.65Z"/>
        <path class="cls-1" d="M136.42,60.19H125.33V58.65h2.13V2h-2.13V.42h11.09V2h-2.13V58.65h2.13Zm-5.55-1.54V2h-1.7V58.65Z"/>
        <path class="cls-1" d="M167.74,2h-2.13V51.9a7.8,7.8,0,0,1-3,6.14,11.45,11.45,0,0,1-14.46,0,7.8,7.8,0,0,1-3-6.14V2H143V.42h11.13V2H152V55.65a3.34,3.34,0,0,0,1,2.42,3.28,3.28,0,0,0,2.38,1,3.41,3.41,0,0,0,3.42-3.42V2h-2.13V.42h11.09ZM149.65,57.65a7.31,7.31,0,0,1-1.09-4.13V2h-1.7V52.52A6,6,0,0,0,149.65,57.65Zm12.55-4.38V2h-1.71V54.48a6.25,6.25,0,0,1-1.34,4.17A6.1,6.1,0,0,0,162.2,53.27Z"/>
        <path class="cls-1" d="M203.27,60.19H192.18V58.65h2.13V17.92l-4.79,42.27h-5.46l-5.63-42.27V58.65h2.12v1.54h-6.37V58.65h2.12V2h-2.12V.42h9L189.1,47,194.23.42h9V2h-2.12V58.65h2.12Zm-15.55-1.54L179.89,2H178l7.84,56.69Zm10,0V2H196V58.65Z"/>
        <path class="cls-1" d="M248.08,60.19H227.19V58.65h2.13V2h-2.13V.42h11.09V2h-2.13V58.65h5.13V42.27h6.8Zm-15.35-1.54V2H231V58.65Zm12,0V43.81H243V58.65Z"/>
        <path class="cls-1" d="M276.69,60.19H265.6V58.65h2.13l-1.55-17.34h-6.12l-1.71,17.34h2.12v1.54h-6.42V58.65h2.13l6-58.23H269l5.54,58.23h2.13ZM266.1,39.81,263.26,7.5l-3.12,32.31Zm5,18.84L265.77,2h-1.71l5.37,56.69Z"/>
        <path class="cls-1" d="M304.42,51.9a7.8,7.8,0,0,1-3,6.14,11.48,11.48,0,0,1-14.48,0,7.76,7.76,0,0,1-3-6.14V8.71a7.8,7.8,0,0,1,3-6.15,11.52,11.52,0,0,1,14.48,0,7.83,7.83,0,0,1,3,6.15v9.63h-6.83V5a3.42,3.42,0,1,0-6.84,0V55.65a3.42,3.42,0,1,0,6.84,0V29.39h-3.42V27.84h10.25Zm-16,5.75a7.09,7.09,0,0,1-1.13-4.13V7.09A7,7,0,0,1,288.46,3a5.92,5.92,0,0,0-2.84,5.13V52.52A6,6,0,0,0,288.46,57.65ZM301,16.84V7.34A6.08,6.08,0,0,0,297.92,2a6.19,6.19,0,0,1,1.38,4.21V16.84Zm0,36.43V29.39H299.3V54.48a6.12,6.12,0,0,1-1.38,4.17A6.08,6.08,0,0,0,301,53.27Z"/>
        <path class="cls-1" d="M333.87,60.19H312.53V58.65h2.12V2h-2.12V.42h21.34V18.34H327V2h-5.55V27.84h8.09v1.55h-8.09V58.65H327V42.27h6.83Zm-15.8-1.54V2h-1.71V58.65Zm12.38-41.81V2h-1.71V16.84Zm0,41.81V43.81h-1.71V58.65Z"/>
        <path class="cls-1" d="M365.86,60.19h-3q-6,0-6-6.25V32.81a3.41,3.41,0,0,0-3.42-3.42h-3V58.65h2.13v1.54H341.56V58.65h2.12V2h-2.12V.42h11.92A10.78,10.78,0,0,1,360.73,3a7.83,7.83,0,0,1,3,6.15V20.68q0,5.58-6,7.92,6,2.49,6,8v19.8c0,1.53.66,2.29,2,2.29h.17ZM347.1,58.65V2h-1.71V58.65Zm9.8-34.22v-19a3.32,3.32,0,0,0-1-2.42,3.3,3.3,0,0,0-2.42-1h-3V27.84h3a3.41,3.41,0,0,0,3.42-3.41Zm3.42-2.38V7.79a6,6,0,0,0-3.05-5.37,6.14,6.14,0,0,1,1.34,4.17V23.22a6.33,6.33,0,0,1-1.34,4.21A6.1,6.1,0,0,0,360.32,22.05Zm1.71,37c-1.14-.64-1.71-1.86-1.71-3.67V35.18a6.1,6.1,0,0,0-3.05-5.38A6.27,6.27,0,0,1,358.61,34V54.65Q358.61,58.49,362,59.07Z"/>
      </g>
    </g>
  </g>
</svg>
